<?xml version="1.0" encoding="utf-8"?>
<!-- Generator: Adobe Illustrator 16.0.0, SVG Export Plug-In . SVG Version: 6.00 Build 0)  -->
<!DOCTYPE svg PUBLIC "-//W3C//DTD SVG 1.1//EN" "http://www.w3.org/Graphics/SVG/1.1/DTD/svg11.dtd">
<svg version="1.1" id="Layer_1" xmlns="http://www.w3.org/2000/svg" xmlns:xlink="http://www.w3.org/1999/xlink" x="0px" y="0px"
	 width="41.667px" height="41.76px" viewBox="0 0 41.667 41.76" enable-background="new 0 0 41.667 41.76" xml:space="preserve">
<g>
	<path fill-rule="evenodd" clip-rule="evenodd" fill="#FFCCFD" d="M21.461,5.919c7.644,0,13.84,6.196,13.84,13.84
		c0,7.644-6.196,13.84-13.84,13.84c-7.644,0-13.84-6.196-13.84-13.84C7.621,12.116,13.817,5.919,21.461,5.919L21.461,5.919z"/>
	
		<path fill-rule="evenodd" clip-rule="evenodd" fill="#BDA2F1" stroke="#4900A3" stroke-width="0.216" stroke-miterlimit="22.9256" d="
		M3.813,23.026l0.017,12.63l7.154,0.002l0.001,1.251l5.926,0.006l0.001-1.262l7.123,0.009c0.183-3.513,0.025-9.999,0.051-13.889
		L3.815,21.777L3.813,23.026L3.813,23.026z"/>
	
		<polygon fill-rule="evenodd" clip-rule="evenodd" fill="#FFFFFF" stroke="#4900A3" stroke-width="0.216" stroke-miterlimit="22.9256" points="
		4.645,34.786 23.245,34.815 23.245,22.63 4.675,22.601 4.645,34.786 	"/>
	
		<polygon fill-rule="evenodd" clip-rule="evenodd" fill="#BDA2F1" stroke="#4900A3" stroke-width="0.216" stroke-miterlimit="22.9256" points="
		9.317,38.149 18.573,38.182 18.576,37.406 9.321,37.366 9.317,38.149 	"/>
	
		<path fill-rule="evenodd" clip-rule="evenodd" fill="#FFFFFF" stroke="#4900A3" stroke-width="0.216" stroke-miterlimit="22.9256" d="
		M7.01,20.023c0,2.679,0.503,5.441,1.795,7.683c0.077,0.132,0.159,0.252,0.24,0.4c0.255,0.471,1.12,1.672,1.52,2.067l0.587,0.608
		c0.271,0.205,0.693,0.651,1.293,1.098c0.206,0.154,1.306,0.908,1.525,0.908c0.347,0,2.081-1.288,2.487-1.696l1.194-1.238
		c0.1-0.112,0.175-0.206,0.271-0.328c2.039-2.611,3.006-5.572,3.006-9.502c0-0.171-0.501-0.199-0.862-0.29
		c-0.901-0.228-1.809-0.498-2.637-0.864c-0.26-0.114-0.536-0.222-0.799-0.354c-0.272-0.136-0.495-0.248-0.768-0.385
		c-1.654-0.827-2.077-0.854-3.728-0.028l-1.182,0.569c-0.664,0.309-1.412,0.599-2.133,0.813L7.42,19.836
		C7.122,19.902,7.01,19.872,7.01,20.023L7.01,20.023z"/>
	
		<path fill-rule="evenodd" clip-rule="evenodd" fill="#FCA4F9" stroke="#4900A3" stroke-width="0.216" stroke-miterlimit="22.9256" d="
		M13.969,31.891c-0.163,0-1.168-0.719-1.33-0.848c-0.43-0.343-0.748-0.653-1.136-1.041c-0.847-0.847-1.294-1.516-1.892-2.505
		c-0.833-1.379-1.389-3.224-1.622-4.909c-0.043-0.309-0.074-0.697-0.114-0.996l-0.055-1.056c0.199-0.017,0.617-0.138,0.827-0.199
		c1.526-0.443,2.344-0.768,3.77-1.481c2.021-1.01,1.846-0.517,4.498,0.654c0.621,0.274,2.64,0.979,3.201,1.026l-0.163,2.014
		c-0.092,0.641-0.2,1.242-0.358,1.819c-0.731,2.673-1.806,4.299-3.672,6.146l-0.602,0.509C15.154,31.16,14.134,31.891,13.969,31.891
		L13.969,31.891z"/>
	
		<path fill-rule="evenodd" clip-rule="evenodd" fill="#FFFFFF" stroke="#4900A3" stroke-width="0.216" stroke-miterlimit="22.9256" d="
		M13.413,24.25c-0.051,0.107-0.47,2.008-0.47,2.263h2.049c0-0.254-0.418-2.156-0.47-2.263c0.24-0.127,0.278-0.193,0.401-0.453
		c0.304-0.644-0.185-1.468-0.956-1.468C12.902,22.328,12.54,23.788,13.413,24.25L13.413,24.25z"/>
	
		<path fill-rule="evenodd" clip-rule="evenodd" fill="#FFFFFF" stroke="#4900A3" stroke-width="0.216" stroke-miterlimit="22.9256" d="
		M30.643,24.14c0,0-1.537,1.17-1.607,2.394s0.437,3.255,2.176,3.782s2.953-0.322,3.85-1.245s0.63-2.447,0.63-2.447
		s-1.483,0.385-2.396-0.247C32.383,25.746,30.785,24.827,30.643,24.14L30.643,24.14z"/>
	
		<path fill-rule="evenodd" clip-rule="evenodd" fill="#FCA4F9" stroke="#4900A3" stroke-width="0.216" stroke-miterlimit="22.9256" d="
		M38.232,38.065c0.401-0.25,0.655-0.269,0.806-0.784c0.118-0.404,0.084-4.046-0.043-4.553c-0.38-1.513-1.874-2.8-3.818-2.507
		c-0.248,0.956-0.297,1.446-0.883,1.994c-1.735,1.622-4.682,0.607-4.777-2.026c-1.21,0.006-1.794,0.047-2.592,0.666
		c-0.496,0.384-1.033,0.989-1.255,1.874c-0.193,0.767-0.093,2.208-0.093,3.093c0,1.734-0.125,1.632,0.854,2.244H38.232
		L38.232,38.065z"/>
	
		<path fill-rule="evenodd" clip-rule="evenodd" fill="#BDA2F1" stroke="#4900A3" stroke-width="0.216" stroke-miterlimit="22.9256" d="
		M31.859,21.385c-0.4,0.171-0.92,0.181-1.451,0.437c-0.485,0.233-0.893,0.513-1.207,0.801c-0.56,0.514-1.2,1.561-1.337,2.674
		c-0.271,2.207,1.172,4.406,3.03,4.823c-0.043-0.034-0.088-0.066-0.162-0.116c-0.083-0.056-0.126-0.081-0.202-0.131
		c-0.863-0.574-1.512-1.503-1.575-2.646c-0.086-1.581,0.807-2.516,1.634-3.079c0.143,0.165,0.245,0.365,0.382,0.558
		c0.142,0.2,0.251,0.357,0.432,0.532c0.247,0.239,0.772,0.639,1.163,0.84c0.854,0.44,1.751,0.73,2.74,0.551
		c0.452-0.082,0.217-0.124,0.333,0.003c0.314,0.533-0.178,1.71-0.401,2.105c-0.289,0.511-0.731,0.889-1.202,1.199l-0.266,0.186
		c2.837-0.653,4.292-5.012,1.734-7.461c-1.132-1.084-2.068-1.006-2.699-1.276H31.859L31.859,21.385z"/>
	<path fill="#EC008C" d="M17.647,3.086c-0.787,0.175-1.578,0.407-2.33,0.696l0.172,0.448c0.737-0.279,1.496-0.505,2.264-0.676
		L17.647,3.086L17.647,3.086z M38.028,15.963l-0.488,0.016c-0.151-0.648-0.342-1.292-0.57-1.915l0.45-0.167
		C37.666,14.57,37.87,15.264,38.028,15.963L38.028,15.963z M12.688,5.045c-0.681,0.4-1.39,0.882-2,1.383l0.302,0.373
		c0.59-0.486,1.285-0.956,1.944-1.343L12.688,5.045L12.688,5.045z M8.577,8.439c-0.542,0.607-1.029,1.254-1.479,1.93l0.401,0.263
		c0.435-0.655,0.914-1.289,1.438-1.875L8.577,8.439L8.577,8.439z M5.706,12.933c-0.333,0.778-0.571,1.484-0.811,2.294l0.463,0.124
		c0.17-0.717,0.497-1.546,0.788-2.226L5.706,12.933L5.706,12.933z M36.188,11.255c-0.396-0.689-0.863-1.395-1.359-2.016
		l-0.377,0.297c0.486,0.629,0.925,1.269,1.321,1.959L36.188,11.255L36.188,11.255z M32.842,7.104
		c-0.611-0.549-1.234-1.039-1.913-1.501L30.661,6c0.66,0.449,1.266,0.926,1.859,1.459L32.842,7.104L32.842,7.104z M28.382,4.18
		c-0.741-0.335-1.502-0.612-2.283-0.839l-0.13,0.462c0.735,0.2,1.522,0.5,2.217,0.815L28.382,4.18L28.382,4.18z"/>
	<path fill="#EC008C" d="M23.256,2.843c-0.803-0.059-1.627-0.064-2.432-0.004l0.036,0.479c0.786-0.056,1.577-0.053,2.363,0.004
		L23.256,2.843L23.256,2.843z"/>
</g>
</svg>
