<?xml version="1.0" encoding="utf-8"?>
<!-- Generator: Adobe Illustrator 16.0.0, SVG Export Plug-In . SVG Version: 6.00 Build 0)  -->
<!DOCTYPE svg PUBLIC "-//W3C//DTD SVG 1.1//EN" "http://www.w3.org/Graphics/SVG/1.1/DTD/svg11.dtd">
<svg version="1.1" id="Layer_1" xmlns="http://www.w3.org/2000/svg" xmlns:xlink="http://www.w3.org/1999/xlink" x="0px" y="0px"
	 width="41.667px" height="41.76px" viewBox="0 0 41.667 41.76" enable-background="new 0 0 41.667 41.76" xml:space="preserve">
<g>
	<path fill-rule="evenodd" clip-rule="evenodd" fill="#FFCCFD" d="M21.023,6.162c7.644,0,13.84,6.196,13.84,13.84
		c0,7.645-6.196,13.841-13.84,13.841s-13.84-6.196-13.84-13.841C7.184,12.358,13.379,6.162,21.023,6.162L21.023,6.162z"/>
	<path fill="#EC008C" d="M17.21,3.328c-0.787,0.175-1.578,0.407-2.33,0.696l0.171,0.448c0.737-0.28,1.496-0.505,2.265-0.676
		L17.21,3.328L17.21,3.328z M37.59,16.206l-0.489,0.016c-0.15-0.647-0.342-1.292-0.57-1.914l0.45-0.166
		C37.228,14.812,37.433,15.506,37.59,16.206L37.59,16.206z M12.251,5.287c-0.681,0.401-1.39,0.882-2,1.384l0.302,0.373
		c0.59-0.486,1.285-0.956,1.944-1.344L12.251,5.287L12.251,5.287z M8.139,8.682C7.598,9.289,7.11,9.936,6.66,10.612l0.402,0.263
		c0.435-0.655,0.914-1.288,1.438-1.876L8.139,8.682L8.139,8.682z M5.268,13.174c-0.333,0.778-0.571,1.485-0.812,2.294l0.464,0.124
		c0.17-0.717,0.497-1.546,0.788-2.226L5.268,13.174L5.268,13.174z M35.75,11.498c-0.396-0.69-0.863-1.395-1.36-2.017l-0.376,0.297
		c0.486,0.629,0.925,1.27,1.321,1.959L35.75,11.498L35.75,11.498z M32.404,7.346c-0.611-0.55-1.234-1.039-1.913-1.502l-0.268,0.398
		c0.66,0.448,1.266,0.926,1.859,1.459L32.404,7.346L32.404,7.346z M27.944,4.422c-0.741-0.336-1.502-0.612-2.283-0.839l-0.13,0.462
		c0.735,0.2,1.523,0.5,2.217,0.814L27.944,4.422L27.944,4.422z"/>
	<path fill="#EC008C" d="M22.818,3.085c-0.804-0.06-1.628-0.064-2.432-0.005l0.035,0.479C21.208,3.503,22,3.506,22.785,3.564
		L22.818,3.085L22.818,3.085z"/>
	
		<path fill-rule="evenodd" clip-rule="evenodd" fill="#FCA4F9" stroke="#4900A3" stroke-width="0.216" stroke-miterlimit="22.9256" d="
		M14.437,25.786l-0.024,0.135c-0.063,0.324-1.319,3.967-1.431,4.265c-0.513,1.373-0.939,2.853-1.431,4.259
		c-0.241,0.688-0.465,1.397-0.703,2.104c-0.118,0.353-0.123,0.762,0.254,0.979c0.195,0.112,6.513,0.046,7.072,0.046
		c0.936,0,1.871,0,2.806,0c0.453,0,0.983,0.026,1.425,0.002c0.294-0.017,0.656-0.37,0.477-0.833
		c-1.277-3.289-2.631-7.163-3.661-10.562c-0.109-0.362-0.543-1.996-0.663-2.183l-3.459-0.007c-0.098,0.173-0.243,0.669-0.319,0.88
		l-0.324,0.886C14.452,25.764,14.444,25.777,14.437,25.786L14.437,25.786z"/>
	
		<path fill-rule="evenodd" clip-rule="evenodd" fill="#BDA2F1" stroke="#4900A3" stroke-width="0.216" stroke-miterlimit="22.9256" d="
		M26.35,18.375c0.224-0.128,0.679-0.44,0.942-0.51l-0.002,1.067C27.136,18.89,26.479,18.533,26.35,18.375L26.35,18.375z
		 M25.288,17.855c0.237,0.073,0.712,0.379,0.935,0.53c-0.067,0.104-0.745,0.503-0.935,0.543L25.288,17.855L25.288,17.855z
		 M23.027,25.828c0.063-0.321,0.011-3.622,0.015-4.252c0.001-0.186-0.042-1.263,0.238-1.247c0.17,0.079,0.169,0.228,0.195,0.441
		c0.023,0.195,0.034,0.376,0.042,0.576c0.048,1.222,0.015,2.547,0.024,3.783l5.668,0.001c0.001-0.878,0.001-1.755,0-2.632
		c0-0.436-0.002-0.872,0.01-1.308c0.008-0.295-0.045-0.971,0.212-1.075c0.24,0.129,0.202,0.696,0.215,0.99
		c0.056,1.25-0.107,5.067,0.201,5.856c0.236,0.605,1.086,0.757,1.373-0.178c0.265-0.865,0.142-3.662,0.142-4.747
		c0-0.804,0.003-1.581,0.033-2.384c0.032-0.879-0.203-1.408-0.698-1.767c-0.552-0.399-1.377-0.286-2.15-0.286l-4.882-0.003
		c-1.045,0-1.355-0.055-1.906,0.572c-0.46,0.524-0.41,1.173-0.417,2.021c-0.006,0.732,0.842,2.952,1.112,3.786
		C22.601,24.436,22.985,25.395,23.027,25.828L23.027,25.828z"/>
	
		<path fill-rule="evenodd" clip-rule="evenodd" fill="#FCA4F9" stroke="#4900A3" stroke-width="0.216" stroke-miterlimit="22.9256" d="
		M10.851,27.592c0.609,0.293,1.049-0.387,1.319-0.872c0.642-1.149,1.453-4.276,1.962-5.725c0.068-0.194,0.132-0.371,0.212-0.56
		c0.085-0.2,0.142-0.423,0.37-0.429c0.312,0.25,0.438,2.394,0.504,2.944l3.367,0.002c0.148-0.734,0.198-1.438,0.387-2.31
		c0.294-1.363,0.569-0.229,0.758,0.451c0.398,1.432,0.632,2.276,1.123,3.721c0.255,0.753,0.509,1.721,0.887,2.344
		c0.218,0.359,0.5,0.634,1.072,0.361c0.977-0.463-0.068-2.885-0.342-3.705c-0.266-0.794-0.536-1.621-0.806-2.423
		c-0.142-0.419-0.228-0.848-0.376-1.239c-0.733-1.948-0.732-2.191-2.619-2.221l-0.695,1.29c-0.31,0.526-0.514,1.033-0.994,1.034
		c-0.48,0.001-0.681-0.484-0.984-1c-0.332-0.563-0.485-0.945-0.702-1.322c-2.048-0.01-2.13,0.779-2.543,1.948
		c-0.136,0.387-0.257,0.748-0.395,1.143C11.702,22.916,9.598,27.081,10.851,27.592L10.851,27.592z"/>
	
		<path fill-rule="evenodd" clip-rule="evenodd" fill="#BDA2F1" stroke="#4900A3" stroke-width="0.216" stroke-miterlimit="22.9256" d="
		M28.893,25.993h-5.353c-0.028,2.134-0.005,4.289-0.005,6.425c0,0.987-0.111,5.799,0.095,6.338c0.138,0.36,0.453,0.617,0.877,0.698
		c0.46,0.088,0.993-0.022,1.271-0.271c0.368-0.331,0.372-0.626,0.371-1.229l0-6.421c0-0.637-0.107-1.321,0.372-1.271
		c0.215,0.291,0.117,1.695,0.117,2.194v4.613c0.001,0.767-0.121,1.494,0.315,1.987c0.265,0.325,0.899,0.686,1.46,0.379
		c0.372-0.203,0.781-0.674,0.783-1.25l0.012-12.191L28.893,25.993L28.893,25.993z"/>
	
		<path fill-rule="evenodd" clip-rule="evenodd" fill="#FFFFFF" stroke="#4900A3" stroke-width="0.216" stroke-miterlimit="22.9256" d="
		M25.804,11.89c-1.331,0.369-2.326,1.701-2.08,2.977c0.223,1.155,1.527,2.38,3.012,2.015c1.072-0.263,2.361-1.482,2.014-2.926
		C28.495,12.897,27.24,11.492,25.804,11.89L25.804,11.89z"/>
	
		<path fill-rule="evenodd" clip-rule="evenodd" fill="#FFFFFF" stroke="#4900A3" stroke-width="0.216" stroke-miterlimit="22.9256" d="
		M16.768,11.937c-1.071,0.23-2.162,1.483-2.032,2.824c0.116,1.186,1.242,2.484,2.61,2.252c1.1-0.187,2.234-1.438,2.048-2.812
		C19.241,13.083,18.08,11.656,16.768,11.937L16.768,11.937z"/>
	
		<path fill-rule="evenodd" clip-rule="evenodd" fill="#FCA4F9" stroke="#4900A3" stroke-width="0.216" stroke-miterlimit="22.9256" d="
		M14.199,39.133c0.074,0.157,0.173,0.307,0.315,0.414c0.32,0.181,0.479,0.204,0.901,0.174c0.101-0.015,0.21-0.043,0.295-0.08
		c0.051-0.022,0.074-0.039,0.126-0.068c0.087-0.048,0.06-0.044,0.143-0.063c0.054-0.094,0.066-0.096,0.137-0.193
		c0.026-0.036,0.032-0.05,0.061-0.092c0.065-0.094,0.014-0.043,0.09-0.111l0.101-0.577l0.008-0.245l-2.302-0.015
		C14.105,38.66,14.097,38.774,14.199,39.133L14.199,39.133z"/>
	
		<path fill-rule="evenodd" clip-rule="evenodd" fill="#FCA4F9" stroke="#4900A3" stroke-width="0.216" stroke-miterlimit="22.9256" d="
		M16.673,38.632c0.119,0.603,0.3,0.856,0.81,1.045c0.279,0.048,0.376,0.039,0.652,0.011c0.148-0.076,0.256-0.119,0.367-0.214
		c0.051-0.045,0.102-0.092,0.154-0.157c0.045-0.06,0.07-0.137,0.127-0.172c0.09-0.336,0.171-0.429,0.163-0.854l-2.289-0.003
		L16.673,38.632L16.673,38.632z"/>
</g>
</svg>
