<?xml version="1.0" encoding="utf-8"?>
<!-- Generator: Adobe Illustrator 16.0.0, SVG Export Plug-In . SVG Version: 6.00 Build 0)  -->
<!DOCTYPE svg PUBLIC "-//W3C//DTD SVG 1.1//EN" "http://www.w3.org/Graphics/SVG/1.1/DTD/svg11.dtd">
<svg version="1.1" id="Layer_1" xmlns="http://www.w3.org/2000/svg" xmlns:xlink="http://www.w3.org/1999/xlink" x="0px" y="0px"
	 width="41.667px" height="41.76px" viewBox="0 0 41.667 41.76" enable-background="new 0 0 41.667 41.76" xml:space="preserve">
<g>
	<path fill-rule="evenodd" clip-rule="evenodd" fill="#FFCCFD" d="M21.023,6.485c7.644,0,13.84,6.197,13.84,13.84
		c0,7.645-6.196,13.842-13.84,13.842c-7.644,0-13.84-6.197-13.84-13.842C7.183,12.682,13.379,6.485,21.023,6.485L21.023,6.485z"/>
	<path fill="#EC008C" d="M17.209,3.651c-0.787,0.176-1.578,0.408-2.33,0.697l0.172,0.447c0.737-0.279,1.496-0.504,2.264-0.676
		L17.209,3.651L17.209,3.651z M37.59,16.53l-0.488,0.016c-0.151-0.648-0.342-1.293-0.57-1.914l0.45-0.166
		C37.228,15.135,37.432,15.831,37.59,16.53L37.59,16.53z M12.25,5.61c-0.681,0.402-1.39,0.883-2,1.385l0.302,0.373
		c0.59-0.486,1.285-0.957,1.944-1.344L12.25,5.61L12.25,5.61z M8.139,9.006C7.598,9.612,7.11,10.26,6.66,10.936l0.401,0.262
		c0.435-0.654,0.914-1.287,1.438-1.875L8.139,9.006L8.139,9.006z M5.268,13.499c-0.333,0.777-0.571,1.484-0.811,2.293l0.463,0.125
		C5.09,15.2,5.417,14.37,5.708,13.69L5.268,13.499L5.268,13.499z M35.75,11.821c-0.396-0.689-0.863-1.395-1.359-2.016l-0.377,0.297
		c0.486,0.629,0.925,1.27,1.321,1.959L35.75,11.821L35.75,11.821z M32.404,7.67c-0.611-0.551-1.234-1.039-1.913-1.502l-0.268,0.398
		c0.66,0.447,1.266,0.926,1.858,1.459L32.404,7.67L32.404,7.67z M27.944,4.747c-0.741-0.336-1.502-0.613-2.283-0.84l-0.13,0.463
		c0.735,0.199,1.522,0.5,2.217,0.814L27.944,4.747L27.944,4.747z"/>
	<path fill="#EC008C" d="M22.818,3.409c-0.803-0.059-1.628-0.064-2.432-0.004l0.036,0.479c0.786-0.057,1.577-0.053,2.363,0.004
		L22.818,3.409L22.818,3.409z"/>
	
		<path fill-rule="evenodd" clip-rule="evenodd" fill="#BDA2F1" stroke="#4900A3" stroke-width="0.216" stroke-miterlimit="22.9256" d="
		M12.345,30.178c-0.184-0.174-0.088,0.283-0.214-0.48l0.303,0.348c0.75,0.457,1.423,1.291,2.104,1.906
		c1.171,1.057,1.072,0.418,1.566,2.408c0.567,2.285,0.978,5.674,2.865,4.848c1.244-0.545,0.534-2.189,0.303-3.051
		c-0.752-2.803-0.75-4.334-2.335-5.605c-0.777-0.625-1.315-1.334-2.167-1.85l1.622-5.908c1.126,0.168,2.274,0.795,3.47,0.662
		l1.671-2.385c0.689-0.961,1.608-1.988,1.16-2.654c-1.021-1.053-1.65,0.451-2.067,1.039c-0.579,0.816-1.091,1.484-1.555,2.289
		l-2.174-0.496c-0.445,0.727-1.518,1.207-2.685,0.83c-1.237-0.4-1.053-0.859-1.789-1.727l-3.26-0.027
		c-0.674-1.127-0.6-2.916-1.492-4.256c-1.251-0.059-1.39,0.453-1.067,1.559c1.689,5.787,0.676,4.006,4.073,4.441
		c-0.358,1.201-0.659,2.492-0.994,3.74c-0.499,1.861-0.75,1.879-0.242,3.871c0.611,2.393,0.824,2.324-0.03,3.652
		c-0.474,0.738-2.576,3.73-2.536,4.563c0.033,0.684,0.525,1.166,1.187,1.217c1.126,0.084,1.803-1.576,2.263-2.318
		c0.655-1.059,2.546-3.451,2.39-4.689C12.629,31.436,12.327,30.952,12.345,30.178L12.345,30.178z"/>
	
		<path fill-rule="evenodd" clip-rule="evenodd" fill="#FCA4F9" stroke="#4900A3" stroke-width="0.216" stroke-miterlimit="22.9256" d="
		M31.618,29.719c-0.083-0.076-0.256-0.15-0.269-0.158c-0.895,0.412-1.935,0.602-2.832-0.039c-1.356-0.969-0.47-1.539-1.534-2.01
		c-1.496-0.662-3.624-1.461-5.223-2.006c-0.177-0.549-0.121-0.9-0.324-1.361c-0.604-0.119-0.524-0.123-1.036,0.098
		c-0.109,0.438-0.227,1.764,0.164,2.17c0.356,0.369,3.907,1.418,5.056,2.094c-0.965,0.881-3.439,5.414-3.82,7.291
		c1.838,0.672,0.987,0.76,3.075,0.031c2.02-0.703,1.819,0.188,2.495,0.82c0.522-0.311,1-0.602,1.531-0.898
		c0.753-0.422,1.166-0.25,1.883,0.039c0.062-1.729-1.882-2.375-1.121-4.094c0.196-0.441,0.376-0.9,0.707-1.189
		c0.253,1.527,0.577,3.111,0.85,4.68c0.476,2.732,0.307,4.043,1.702,3.848c0.5-0.957-0.26-3.361-0.484-4.639
		C32.193,33,31.727,31.124,31.618,29.719L31.618,29.719z"/>
	
		<path fill-rule="evenodd" clip-rule="evenodd" fill="#FFFFFF" stroke="#4900A3" stroke-width="0.216" stroke-miterlimit="22.9256" d="
		M17.296,20.04c0.67-3.014-3.902-3.73-4.563-1.102C11.941,22.088,16.597,23.19,17.296,20.04L17.296,20.04z"/>
	
		<path fill-rule="evenodd" clip-rule="evenodd" fill="#FFFFFF" stroke="#4900A3" stroke-width="0.216" stroke-miterlimit="22.9256" d="
		M32.117,27.979c0.729-2.744-3.652-4.008-4.352-1.033C27.097,29.79,31.341,30.897,32.117,27.979L32.117,27.979z"/>
	
		<path fill-rule="evenodd" clip-rule="evenodd" fill="#FCA4F9" stroke="#4900A3" stroke-width="0.216" stroke-miterlimit="22.9256" d="
		M24.671,39.663c0.629,0.406,0.754,0.77,1.645,0.303l4.464-2.711c0.268-3.125-3-0.561-5.014,0.602
		C24.868,38.377,24.514,38.278,24.671,39.663L24.671,39.663z"/>
	
		<path fill-rule="evenodd" clip-rule="evenodd" fill="#FCA4F9" stroke="#4900A3" stroke-width="0.216" stroke-miterlimit="22.9256" d="
		M26.958,36.766c-0.349-1.693-2.107-0.65-3.347-0.219c-1.854,0.646-3.293,0.758-3.229,1.916
		C20.523,41.075,26.511,37.282,26.958,36.766L26.958,36.766z"/>
	<path fill-rule="evenodd" clip-rule="evenodd" fill="#4900A3" d="M28.221,22.62l0.005-0.398l0.272,0.264
		c0.26,0.426,0.34,0.607,0.715,0.83c0.33-0.307,0.386-0.475,0.53-0.934c0.346,0.5,0.238,0.787,0.396,1.469l0.883-0.252
		c-0.458,1.482-0.275,0.574-0.108,0.879l0.375-0.662c0.103-0.256,0.152-0.402,0.204-0.723l-1.131,0.375l-0.299-1.711
		c-0.518,0.15-0.565,0.635-0.854,1.092c-0.38-0.357-0.662-1.041-1.139-1.229l-0.156,1.516c-0.739-0.221-1.887-1.135-1.495-0.184
		l0.618,1.152l-1.215,0.189c0.124,0.438-0.06,0.113,0.343,0.484l0.328,0.322c0.016-0.027,0.054,0.068,0.079,0.104l-0.972,0.436
		c-0.179,0.113-0.149,0.111-0.258,0.213c0.382,0.258,1.322,0.439,1.713,0.297c-0.229-0.242-0.952-0.432-0.968-0.424l0.962-0.582
		c-0.215-0.246-0.482-0.428-0.639-0.668l0.885-0.135c0.019-0.043,0.068-0.031,0.1-0.051c0.054-0.309-0.366-0.855-0.541-1.232
		l1.325,0.449L28.221,22.62L28.221,22.62z"/>
	<path fill-rule="evenodd" clip-rule="evenodd" fill="#4900A3" d="M32.023,30.69c0.375,2.119,0.166,2.74,1.704,2.367
		c-0.482-0.408-1.018-0.055-0.966-1.957c0.034-1.262,0.057-1.59-0.544-2.404C31.511,29.196,31.845,29.682,32.023,30.69L32.023,30.69
		z"/>
	<path fill-rule="evenodd" clip-rule="evenodd" fill="#4900A3" d="M18.354,15.901l0.293-0.102c0.05,0.582-0.058,0.412-0.09,0.488
		l-0.324,0.08L18.354,15.901L18.354,15.901z M17.701,16.747c-0.173-2.213,1.98-1.814,1.384-0.67l-0.203-0.357
		c-0.307-0.402-1.069-0.139-0.875,0.863c0.666,0.145,1.824-0.26,1.494-1.133c-1.095-1.336-2.344-0.18-2.068,1.439
		c0.684,0.668,1.858,0.449,2.231-0.434C18.878,16.694,18.645,17.331,17.701,16.747L17.701,16.747z"/>
	<path fill-rule="evenodd" clip-rule="evenodd" fill="#4900A3" d="M13.729,12.436c-0.121,0.713-0.057,0.209,0.126,0.406
		c0.346-1.033,1.591-1.002,1.717,0.41c0.373-0.557,0.333-0.35,0.786,0.127l0.033,0.758c-0.28,0.25-0.402,0.398-0.792,0.5
		l-0.415-0.453l0.051,1.223c0.018-0.039,0.12-0.311,0.127-0.322c0.141-0.256,0.057-0.133,0.201-0.289
		c0.666-0.008,0.702-0.207,1.101-0.533l0.032-0.947c-0.392-0.314-0.359-0.252-0.734-0.506c-0.509-0.346-0.167-0.461-0.572-0.842
		c-0.301-0.281-1.021-0.402-1.419-0.02C13.604,12.297,13.807,12.168,13.729,12.436L13.729,12.436z"/>
	<path fill-rule="evenodd" clip-rule="evenodd" fill="#4900A3" d="M21.122,15.348c-0.134,0.619,0.13,0.387-0.451,0.463
		C20.705,15.413,20.773,15.473,21.122,15.348L21.122,15.348z M21.049,16.354c0.026-0.027,0.068-0.105,0.079-0.082
		s0.06-0.066,0.073-0.086c0.031-0.045,0.161-0.262,0.168-0.275l0.607-0.266c-0.034-0.018-0.083-0.037-0.105-0.043
		c-0.022-0.006-0.077-0.029-0.103-0.035l-0.398-0.063c0.172-0.48,0.041-0.328,0.604-0.385c-0.155-0.258,0.259-0.264-0.316-0.164
		l-0.383-0.656l-0.205,0.607l-0.387-0.201c-0.381,0.666,0.054,0.348-0.631,0.76c-0.197,0.119-0.115,0.066-0.218,0.18
		c0.438,0.184,0.208-0.205,0.647,0.201l-0.592,0.184c0.034,0.031,0.081,0.063,0.109,0.084l0.507,0.492
		c0.417-0.543-0.096-0.244,0.471-0.531L21.049,16.354L21.049,16.354z"/>
	<path fill-rule="evenodd" clip-rule="evenodd" fill="#4900A3" d="M22.837,14.926c-0.123-0.08-0.563,0.074-0.081-0.502
		L22.837,14.926L22.837,14.926z M23.065,14.879l0.077-0.555c0.165,0.156,0.579-0.445,0.076,0.523
		c-0.145,0.523-0.456,0.906-0.165,1.311l0.769-2.104l-1.366,0.119c-0.03,0.133-0.128,0.385-0.127,0.492
		c0,0.68,0.051,0.301,0.144,0.453C22.862,15.208,22.841,15.139,23.065,14.879L23.065,14.879z"/>
	<path fill-rule="evenodd" clip-rule="evenodd" fill="#4900A3" d="M35.592,25.991v-0.396c-0.717-0.689-1.312-0.281-2.02,0.08
		c0.336,0.277,0.532,0.248,1.009,0.342C35.157,26.127,35.142,26.233,35.592,25.991L35.592,25.991z"/>
	<path fill-rule="evenodd" clip-rule="evenodd" fill="#4900A3" d="M14.705,14.487c-0.157-0.102-0.218-0.092-0.335-0.141l0.128,0.422
		l-0.792,0.043c-0.44-0.5-0.505-0.805-0.195-1.455l0.213-0.189l-0.161-0.035c-0.908,0.813-0.955,1.979,1.072,1.99
		c0.059,0.219,0.105,0.391,0.166,0.561L14.705,14.487L14.705,14.487z"/>
	<path fill-rule="evenodd" clip-rule="evenodd" fill="#4900A3" d="M32.519,25.381c0.343-0.232,0.995-0.557,1.11-1.088
		C32.837,23.825,32.493,24.633,32.519,25.381L32.519,25.381z"/>
	<path fill-rule="evenodd" clip-rule="evenodd" fill="#4900A3" d="M23.807,15.737c0.371-0.33-0.575-0.273,0.387-0.281L23.807,15.737
		L23.807,15.737z M23.597,15.961c0.664-0.006,0.75-0.027,0.845-0.6C23.834,14.803,23.52,15.063,23.597,15.961L23.597,15.961z"/>
	<path fill-rule="evenodd" clip-rule="evenodd" fill="#4900A3" d="M34.547,27.508c-0.044-0.83-0.828-0.674-1.299-0.328
		C33.689,27.385,34.07,27.586,34.547,27.508L34.547,27.508z"/>
	<path fill-rule="evenodd" clip-rule="evenodd" fill="#4900A3" d="M12.764,16.395c0-0.271,0.061-0.188-0.233-0.199
		c-0.796,0.234-1.033,0.809-0.727,1.469c0.19,0.41,0.223,0.295,0.36,0.402C11.979,17.415,11.474,16.463,12.764,16.395L12.764,16.395
		z"/>
	<path fill-rule="evenodd" clip-rule="evenodd" fill="#4900A3" d="M25.095,15.086c-0.016-0.818,0.135-1.201-0.198-1.551
		c-0.243,0.375-0.184,1.037-0.113,1.229C24.91,15.1,24.827,14.905,25.095,15.086L25.095,15.086z"/>
	<path fill-rule="evenodd" clip-rule="evenodd" fill="#4900A3" d="M33.305,28.518c0.354,0.725,0.596,0.568,0.343,1.557
		c0.246-0.088,0.136,0.264,0.334-0.313C34.162,29.245,33.966,28.735,33.305,28.518L33.305,28.518z"/>
	<path fill-rule="evenodd" clip-rule="evenodd" fill="#EC008C" d="M23.079,30.1c0.234-1.125,0.334-0.354,0.623-1.102
		c-0.735,0.266-0.993,0.631-0.762,1.531L23.079,30.1L23.079,30.1z"/>
	<path fill-rule="evenodd" clip-rule="evenodd" fill="#4900A3" d="M15.235,15.407c0.009,0.471-0.043,0.465,0.164,0.77
		c0.195-0.338,0.091-0.848,0.164-1.381c-0.144,0.156-0.06,0.033-0.201,0.289C15.355,15.096,15.253,15.368,15.235,15.407
		L15.235,15.407z"/>
	<path fill-rule="evenodd" clip-rule="evenodd" fill="#4900A3" d="M10.424,16.333c0.076-0.033,0.236,0.188,0.351-0.404
		c0.021-0.104,0.01-0.313-0.015-0.416c-0.07-0.291-0.104-0.223-0.179-0.307L10.424,16.333L10.424,16.333z"/>
	<path fill-rule="evenodd" clip-rule="evenodd" fill="#4900A3" d="M10.993,17.059c-0.131-0.121-0.223-0.232-0.655-0.123
		c-0.499,0.125-0.341,0.154-0.453,0.352L10.993,17.059L10.993,17.059z"/>
	<path fill-rule="evenodd" clip-rule="evenodd" fill="#EC008C" d="M23.518,30.225c0.017-0.029,0.034-0.074,0.051-0.107
		c0.194-0.381-0.077,0.074,0.138-0.287c0.254-0.426,0.034,0.15,0.274-0.436c-0.365,0.164-0.284,0.129-0.554,0.328l-0.037,0.721
		L23.518,30.225L23.518,30.225z"/>
	<path fill-rule="evenodd" clip-rule="evenodd" fill="#4900A3" d="M13.562,13.131l0.161,0.035l-0.213,0.189
		c0.58,0.066,0.18,0.059,0.335-0.119l0.01-0.395c-0.183-0.197-0.247,0.307-0.126-0.406C13.429,12.598,13.537,12.764,13.562,13.131
		L13.562,13.131z"/>
	<path fill-rule="evenodd" clip-rule="evenodd" fill="#4900A3" d="M11.574,15.803l0.182,0.1c0.463,0.078,0.614,0.014,0.923-0.264
		L11.574,15.803L11.574,15.803z"/>
	<path fill-rule="evenodd" clip-rule="evenodd" fill="#FFCCFD" d="M20.671,15.811c0.582-0.076,0.317,0.156,0.451-0.463
		C20.773,15.473,20.705,15.413,20.671,15.811L20.671,15.811z"/>
	<path fill-rule="evenodd" clip-rule="evenodd" fill="#FFCCFD" d="M23.065,14.879l0.153-0.031c0.503-0.969,0.089-0.367-0.076-0.523
		L23.065,14.879L23.065,14.879z"/>
	<path fill-rule="evenodd" clip-rule="evenodd" fill="#4900A3" d="M33.332,29.672l0.127,0.127l-0.188-0.854
		c-0.234-0.031-0.182-0.088-0.182,0.139L33.332,29.672L33.332,29.672z"/>
	<path fill-rule="evenodd" clip-rule="evenodd" fill="#4900A3" d="M10.424,16.333c-0.524,0.139-0.496,0.076-0.69,0.438
		c0.073-0.021,0.357-0.104,0.406-0.131C10.41,16.485,10.305,16.52,10.424,16.333L10.424,16.333z"/>
	<path fill-rule="evenodd" clip-rule="evenodd" fill="#4900A3" d="M11.401,18.112l0.168-0.207c-0.026-0.273,0.09,0.039-0.066-0.348
		c-0.13-0.322-0.099-0.133-0.197-0.229L11.401,18.112L11.401,18.112z"/>
	<path fill-rule="evenodd" clip-rule="evenodd" fill="#FFCCFD" d="M18.558,16.288c-0.083-0.629-0.003-0.266-0.204-0.387l-0.12,0.467
		L18.558,16.288L18.558,16.288z"/>
	<path fill-rule="evenodd" clip-rule="evenodd" fill="#4900A3" d="M11.144,15.381L11.006,14.7c-0.066,0.076-0.19-0.012-0.098,0.332
		C11.099,15.743,10.972,15.194,11.144,15.381L11.144,15.381z"/>
	<path fill-rule="evenodd" clip-rule="evenodd" fill="#4900A3" d="M15.6,14.637l-0.11-0.5c-0.707-0.221-0.071-0.043-0.305,0.047
		L15.6,14.637L15.6,14.637z"/>
	<path fill-rule="evenodd" clip-rule="evenodd" fill="#FFCCFD" d="M22.756,14.424c-0.481,0.576-0.042,0.422,0.081,0.502
		L22.756,14.424L22.756,14.424z"/>
	<path fill-rule="evenodd" clip-rule="evenodd" fill="#4900A3" d="M25.039,15.795c0.348-0.502,0.098-0.289,0-0.428
		c-0.205,0.248-0.18-0.434-0.119,0.172C24.955,15.895,24.772,15.579,25.039,15.795L25.039,15.795z"/>
	<path fill-rule="evenodd" clip-rule="evenodd" fill="#4900A3" d="M21.049,16.354l0.277,0.094l0.043-0.537
		c-0.007,0.014-0.137,0.23-0.168,0.275c-0.013,0.02-0.063,0.109-0.073,0.086S21.075,16.327,21.049,16.354L21.049,16.354z"/>
	<path fill-rule="evenodd" clip-rule="evenodd" fill="#4900A3" d="M11.574,15.803l-0.341-0.377c-0.016-0.01-0.061-0.029-0.089-0.045
		C11.14,15.75,11.271,15.713,11.574,15.803L11.574,15.803z"/>
	<path fill-rule="evenodd" clip-rule="evenodd" fill="#A6A6A6" d="M12.345,30.178l0.089-0.133l-0.303-0.348
		C12.257,30.461,12.161,30.004,12.345,30.178L12.345,30.178z"/>
	<path fill-rule="evenodd" clip-rule="evenodd" fill="#FFCCFD" d="M18.558,16.288c0.032-0.076,0.14,0.094,0.09-0.488l-0.293,0.102
		C18.554,16.022,18.475,15.659,18.558,16.288L18.558,16.288z"/>
	<path fill-rule="evenodd" clip-rule="evenodd" fill="#4900A3" d="M21.972,15.12c0.119-0.172,0.214,0.301,0.058-0.293
		c-0.48-0.014-0.131-0.055-0.374,0.129C22.231,14.856,21.817,14.862,21.972,15.12L21.972,15.12z"/>
	<path fill-rule="evenodd" clip-rule="evenodd" fill="#4900A3" d="M11.306,17.329c-0.121-0.375,0.068-0.18-0.313-0.27
		C11.093,17.352,10.922,17.247,11.306,17.329L11.306,17.329z"/>
	<path fill-rule="evenodd" clip-rule="evenodd" fill="#4900A3" d="M11.401,18.112c0.236,0.111-0.363,0.213,0.313,0.066l-0.144-0.273
		L11.401,18.112L11.401,18.112z"/>
	<path fill-rule="evenodd" clip-rule="evenodd" fill="#4900A3" d="M33.088,29.084c0-0.227-0.052-0.17,0.182-0.139
		c-0.301-0.156,0.381-0.262-0.387-0.092L33.088,29.084L33.088,29.084z"/>
	<path fill-rule="evenodd" clip-rule="evenodd" fill="#4900A3" d="M10.581,15.206l-0.004-0.262c-0.215,0-0.16-0.051-0.144,0.174
		C10.45,15.309,10.402,15.278,10.581,15.206L10.581,15.206z"/>
	<path fill-rule="evenodd" clip-rule="evenodd" fill="#4900A3" d="M14.705,14.487c-0.145-0.508-0.319-0.154-0.335-0.141
		C14.486,14.395,14.548,14.385,14.705,14.487L14.705,14.487z"/>
	
		<path fill-rule="evenodd" clip-rule="evenodd" fill="#4900A3" stroke="#FFCCFD" stroke-width="0.216" stroke-miterlimit="22.9256" d="
		M23.807,15.737l0.387-0.281C23.232,15.463,24.178,15.407,23.807,15.737L23.807,15.737z"/>
	<path fill-rule="evenodd" clip-rule="evenodd" fill="#4900A3" d="M10.433,15.118c-0.017-0.225-0.072-0.174,0.144-0.174l-0.25-0.148
		C10.203,15.432,10.275,14.87,10.433,15.118L10.433,15.118z"/>
	<path fill-rule="evenodd" clip-rule="evenodd" fill="#4900A3" d="M12.764,16.395c0.106-0.236,0.254,0.375,0.059-0.314l-0.292,0.115
		C12.825,16.208,12.764,16.124,12.764,16.395L12.764,16.395z"/>
	<polygon fill-rule="evenodd" clip-rule="evenodd" fill="#4900A3" points="33.459,29.799 33.332,29.672 33.172,30.018 
		33.459,29.799 	"/>
	<path fill-rule="evenodd" clip-rule="evenodd" fill="#858585" d="M31.618,29.719l-0.172-0.332l-0.097,0.174
		C31.362,29.569,31.535,29.643,31.618,29.719L31.618,29.719z"/>
</g>
</svg>
