<?xml version="1.0" encoding="utf-8"?>
<!-- Generator: Adobe Illustrator 16.0.0, SVG Export Plug-In . SVG Version: 6.00 Build 0)  -->
<!DOCTYPE svg PUBLIC "-//W3C//DTD SVG 1.1//EN" "http://www.w3.org/Graphics/SVG/1.1/DTD/svg11.dtd">
<svg version="1.1" id="Layer_1" xmlns="http://www.w3.org/2000/svg" xmlns:xlink="http://www.w3.org/1999/xlink" x="0px" y="0px"
	 width="41.667px" height="41.76px" viewBox="0 0 41.667 41.76" enable-background="new 0 0 41.667 41.76" xml:space="preserve">
<g>
	<path fill-rule="evenodd" clip-rule="evenodd" fill="#FFCCFD" d="M21.023,6.833c7.644,0,13.84,6.196,13.84,13.84
		c0,7.645-6.196,13.841-13.84,13.841s-13.84-6.196-13.84-13.841C7.183,13.03,13.379,6.833,21.023,6.833L21.023,6.833z"/>
	<path fill="#EC008C" d="M17.209,4c-0.787,0.175-1.577,0.407-2.33,0.696l0.172,0.448c0.736-0.28,1.495-0.505,2.264-0.676L17.209,4
		L17.209,4z M37.59,16.877l-0.489,0.016c-0.15-0.647-0.342-1.292-0.569-1.914l0.45-0.166C37.228,15.484,37.432,16.178,37.59,16.877
		L37.59,16.877z M12.25,5.958c-0.682,0.401-1.391,0.882-2,1.384l0.302,0.373c0.59-0.486,1.284-0.956,1.943-1.344L12.25,5.958
		L12.25,5.958z M8.139,9.354C7.597,9.96,7.11,10.608,6.66,11.284l0.401,0.263c0.435-0.655,0.914-1.288,1.438-1.876L8.139,9.354
		L8.139,9.354z M5.267,13.846c-0.333,0.778-0.57,1.485-0.811,2.294l0.463,0.124c0.171-0.717,0.497-1.546,0.788-2.226L5.267,13.846
		L5.267,13.846z M35.75,12.169c-0.396-0.69-0.863-1.395-1.359-2.017l-0.377,0.297c0.485,0.629,0.925,1.27,1.321,1.959L35.75,12.169
		L35.75,12.169z M32.404,8.018c-0.611-0.55-1.234-1.039-1.913-1.502l-0.268,0.398c0.659,0.448,1.266,0.926,1.858,1.459L32.404,8.018
		L32.404,8.018z M27.944,5.094c-0.74-0.336-1.502-0.612-2.283-0.839l-0.13,0.462c0.734,0.2,1.522,0.5,2.217,0.814L27.944,5.094
		L27.944,5.094z"/>
	<path fill="#EC008C" d="M22.818,3.757c-0.804-0.06-1.628-0.064-2.432-0.005l0.035,0.479C21.208,4.175,22,4.178,22.785,4.236
		L22.818,3.757L22.818,3.757z"/>
	
		<path fill-rule="evenodd" clip-rule="evenodd" fill="#BDA2F1" stroke="#4900A3" stroke-width="0.216" stroke-miterlimit="22.9256" d="
		M17.818,21.045c0,0.328,0.075,0.724,0.146,0.985l0.294,0.821c-0.11,0.165-0.386,0.372-0.548,0.525
		c-0.119,0.112-0.174,0.123-0.295,0.242l-0.584,0.539c-0.137,0.138-0.751,0.702-0.917,0.743c-0.013-0.135-0.022-0.127-0.049-0.244
		c0.085-0.125,0.125-0.156,0.244-0.244l1.551-1.378c0.107-0.102,0.135-0.151,0.256-0.232l-0.342-1.221
		c-0.237,0.006-0.427,0.099-0.616,0.215c-0.086,0.053-0.148,0.097-0.234,0.155c-0.49,0.335-0.883,0.786-1.235,1.255
		c-0.486,0.646-0.937,1.333-1.315,2.052c-0.063,0.119-0.086,0.178-0.152,0.286l-0.563,1.098c-0.403,0.806-1.162,1.908-0.082,2.563
		c0.126,0.076,0.184,0.085,0.342,0.089c-0.073,0.275-0.684,0.42-0.684,1.415c0,0.974,0.558,3.941,0.682,5.188
		c0.063,0.644,0.207,1.905,0.353,2.574c0.083,0.385,0.229,0.681,0.516,0.939c0.638,0.573,1.704,0.57,2.321-0.047
		c0.703-0.704,0.436-1.625,0.325-2.502c-0.052-0.416-0.144-1.004-0.187-1.315c-0.066-0.48-0.349-2.229-0.349-2.64
		c0.298,0.122,1.274,0.342,1.68,0.428l0.878,0.193c0.072,0.013,0.276,0.05,0.284,0.051c0.79,0.053,1.289-0.672,1.454-0.672
		c0.187,0,0.265,0.075,0.385,0.214c0.133,0.153,0.409,0.289,0.569,0.354c0.639,0.256,2.126-0.228,2.863-0.411
		c0.216-0.055,0.426-0.097,0.624-0.156c-0.104,0.265-0.087,0.347-0.133,0.647c-0.037,0.241-0.053,0.406-0.091,0.648
		c-0.114,0.736-0.508,3.47-0.508,4.073c0,0.499,0.273,0.99,0.694,1.26c1.023,0.658,2.386,0.171,2.613-1.072
		c0.216-1.179,0.568-3.995,0.701-5.158c0.116-1.027,0.599-2.68,0.091-3.467c-0.006-0.008-0.015-0.02-0.02-0.027
		c-0.006-0.009-0.015-0.021-0.021-0.028l-0.301-0.342c-0.385,0.203-0.711,0.467-1.129,0.628c-0.486,0.188-1.434,0.451-1.703,0.934
		c-0.061,0.108-0.065,0.192-0.106,0.333c-0.343,1.15-2.034,1.241-2.53,0.168l-0.088-0.265c-0.234-0.895,0.375-1.767,0.931-2.323
		c0.721-0.721,0.525-0.015,0.525-2.493l-0.004-1.721c0.001-0.034,0.003-0.105,0.009-0.137c0.02-0.099,0.011-0.051,0.044-0.104
		c0.144,0.01,0.952,1.267,1.09,1.508l0.323,0.552c0.006,0.01,0.015,0.021,0.021,0.03c0.2,0.321,0.486,0.881,0.567,1.229
		c-0.204,0.048-0.545,0.209-0.732,0.293l-0.885,0.43c-0.045,0.026-0.104,0.067-0.15,0.098c-0.502,0.336-0.937,0.739-1.211,1.286
		l-0.049,0.097c-0.162,0.313-0.308,0.807-0.217,1.197c0.21,0.904,1.399,1.086,1.957,0.34c0.547-0.731-0.298-0.751,1.929-1.634
		c0.536-0.213,1.167-0.486,1.457-0.936c0.6-0.929,0.061-1.803-0.357-2.657c-0.005-0.011-0.011-0.022-0.016-0.033l-0.57-1.092
		c-0.44-0.795-0.972-1.603-1.581-2.277c-0.006-0.007-0.016-0.018-0.021-0.025l-0.638-0.679c-0.221-0.218-0.451-0.475-0.721-0.655
		c-0.133,0.098-0.238,0.311-0.378,0.452c-0.508,0.518-1.112,0.901-1.859,1.02c-0.131,0.021-0.216,0.043-0.396,0.043
		c-1.229,0.005-0.588-0.157-0.978,0.587c-0.222,0.422-0.696,0.737-1.038,1.061l-0.681,0.588c-0.085,0.067-0.144,0.136-0.222,0.217
		l-1.117,0.983c-0.176,0.133-0.254,0.268-0.43,0.399c-0.197,0.148-0.296,0.295-0.469,0.41v2.246
		c-0.305-0.008-0.821-0.194-1.152-0.265c-0.063-0.014-0.05-0.01-0.12-0.021c-0.017-0.002-0.066-0.008-0.083-0.011
		c-0.014-0.002-0.026-0.004-0.04-0.007s-0.026-0.005-0.04-0.008c-0.319-0.067-0.524-0.176-0.907-0.177
		c0.183-0.24,0.561-0.573,0.794-0.768c0.79-0.661,1.698-1.573,2.437-2.152c0.141-0.111,0.231-0.248,0.373-0.359l1.632-1.443
		c0.069-0.07,0.122-0.133,0.196-0.194c0.369-0.31,0.755-0.569,0.768-1.185c-0.21-0.104-0.484-0.147-0.693-0.272l-0.528-0.354
		c-0.008-0.006-0.021-0.014-0.028-0.02s-0.02-0.015-0.027-0.021l-0.556-0.613c-0.007-0.009-0.016-0.02-0.022-0.028
		c-0.009-0.013-0.032-0.05-0.04-0.063c-0.289-0.457-0.431-0.938-0.545-1.46c-0.176,0.093-0.3,0.199-0.429,0.353
		C17.944,20.567,17.818,20.89,17.818,21.045L17.818,21.045z"/>
	
		<path fill-rule="evenodd" clip-rule="evenodd" fill="#FCA4F9" stroke="#4900A3" stroke-width="0.216" stroke-miterlimit="22.9256" d="
		M24.75,39.546c-0.018-0.207-0.207-0.379-0.287-0.583c-0.322-0.82-0.015-1.766,0.092-2.737c0.062-0.564,0.244-1.498,0.244-2.001
		h-7.518c0,0.788,0.452,3.095,0.49,3.761c0.018,0.307-0.029,0.586-0.093,0.795c-0.209,0.695-0.596,0.699-0.256,0.762L24.75,39.546
		L24.75,39.546z"/>
	
		<path fill-rule="evenodd" clip-rule="evenodd" fill="#FFFFFF" stroke="#4900A3" stroke-width="0.216" stroke-miterlimit="22.9256" d="
		M23.578,21.094c-0.196-0.019-0.172-0.054-0.335-0.104c-0.435-0.138-0.938-0.101-1.357,0.017c-0.073,0.02-0.034,0.006-0.19,0.057
		c-0.354,0.115-0.64,0.265-0.948,0.471c-0.04-0.061-0.058-0.082-0.098-0.139c-0.008-0.012-0.031-0.046-0.039-0.059
		c-0.047-0.072-0.023-0.033-0.059-0.096c0.417-0.396,1.357-0.731,2.05-0.731c0.521,0,0.732,0.152,1.123,0.244L23.578,21.094
		L23.578,21.094z M24.847,19.825c0-0.474-0.087-0.947-0.261-1.299l-0.276-0.507c-0.186-0.27-0.047-0.129-0.277-0.346l-0.349-0.338
		c-0.039-0.031-0.072-0.057-0.11-0.086c-0.162-0.121-0.311-0.191-0.494-0.288c-1.135-0.598-2.597-0.27-3.443,0.582
		c-0.308,0.308-0.602,0.723-0.752,1.153c-0.142,0.406-0.232,0.868-0.161,1.306c0.003,0.016,0.006,0.026,0.009,0.042
		c0.049,0.321,0.021,0.477,0.225,0.898c0.09,0.188,0.181,0.361,0.275,0.502l0.531,0.597c0.087,0.093,0.125,0.111,0.211,0.167
		c0.084,0.054,0.163,0.118,0.236,0.161c1.58,0.935,3.553,0.261,4.328-1.339C24.7,20.697,24.847,20.208,24.847,19.825L24.847,19.825z
		"/>
	
		<path fill-rule="evenodd" clip-rule="evenodd" fill="#FCA4F9" stroke="#4900A3" stroke-width="0.216" stroke-miterlimit="22.9256" d="
		M11.13,39.546c0.992,0,1.985,0,2.978,0c-0.027-0.328-0.311-0.255-0.438-1.175l-0.481-3.521c-0.025-0.21,0.002-0.626-0.204-0.626
		h0.049c-0.634,0-1.269,0-1.903,0V39.546L11.13,39.546z"/>
	
		<path fill-rule="evenodd" clip-rule="evenodd" fill="#FCA4F9" stroke="#4900A3" stroke-width="0.216" stroke-miterlimit="22.9256" d="
		M27.971,39.546h2.611c0.137,0,0.171-0.034,0.171-0.146v-5.175h-1.66c-0.175,0-0.162,0.206-0.196,0.584
		c-0.084,0.92-0.368,2.504-0.488,3.563c-0.023,0.209-0.088,0.439-0.163,0.625C28.159,39.208,27.99,39.322,27.971,39.546
		L27.971,39.546z"/>
	<polygon fill-rule="evenodd" clip-rule="evenodd" fill="#4900A3" points="12.985,16.067 24.017,16.067 23.822,16.067 
		23.822,15.823 12.985,15.823 12.985,16.067 	"/>
	<path fill-rule="evenodd" clip-rule="evenodd" fill="#4900A3" d="M11.814,17.043h7.858c0.183,0,0.363-0.141,0.439-0.244h-8.396
		h0.098V17.043L11.814,17.043z"/>
	<path fill-rule="evenodd" clip-rule="evenodd" fill="#4900A3" d="M15.573,15.09h4.441c0-0.151,0.033-0.217-0.016-0.244h-0.845
		h-0.056h-3.525V15.09L15.573,15.09z"/>
	<path fill-rule="evenodd" clip-rule="evenodd" fill="#4900A3" d="M23.871,17.043h2.587v-0.244h-3.026
		C23.507,16.903,23.689,17.043,23.871,17.043L23.871,17.043z"/>
	<polygon fill-rule="evenodd" clip-rule="evenodd" fill="#4900A3" points="15.573,18.019 17.671,18.019 17.671,17.776 
		15.573,17.776 15.573,18.019 	"/>
	<polygon fill-rule="evenodd" clip-rule="evenodd" fill="#4900A3" points="21.088,15.09 22.456,15.09 22.456,14.846 21.088,14.846 
		21.088,15.09 	"/>
	<polygon fill-rule="evenodd" clip-rule="evenodd" fill="#4900A3" points="27.141,17.043 28.508,17.043 28.508,16.799 
		27.141,16.799 27.141,17.043 	"/>
	<polygon fill-rule="evenodd" clip-rule="evenodd" fill="#4900A3" points="24.652,16.067 25.823,16.067 25.823,15.823 
		24.652,15.823 24.652,16.067 	"/>
	<path fill-rule="evenodd" clip-rule="evenodd" fill="#4900A3" d="M18.062,18.019h0.879c0.048-0.181,0.049-0.063,0.097-0.243h-0.964
		L18.062,18.019L18.062,18.019z"/>
	
		<path fill-rule="evenodd" clip-rule="evenodd" fill="#FCA4F9" stroke="#4900A3" stroke-width="0.216" stroke-miterlimit="22.9256" d="
		M18.229,16.201c0.713,0.867,0.994,0.528,1.53,0.372c3.962-1.156,4.47,1.154,5.672-0.372c-0.138-0.221-0.396-0.361-0.566-0.594
		c-0.249-0.337-0.153-0.657-0.375-0.892c-0.346-0.242-1.127-0.091-1.539-0.308c-0.416-0.218-0.723-0.576-1.122-0.772
		c-0.859,0.453-0.729,0.862-2.111,0.966c-0.82,0.062-0.544,0.069-0.772,0.731C18.786,15.792,18.428,15.892,18.229,16.201
		L18.229,16.201z"/>
	
		<path fill-rule="evenodd" clip-rule="evenodd" fill="#FCA4F9" stroke="#4900A3" stroke-width="0.216" stroke-miterlimit="22.9256" d="
		M19.137,17.041c-0.107,1.036,1.469,1.582,2.605,1.598c1.323,0.018,2.59-0.418,2.825-1.514c-0.472-0.398-2.09-0.609-2.653-0.614
		C21.083,16.502,19.83,16.734,19.137,17.041L19.137,17.041z"/>
	
		<path fill-rule="evenodd" clip-rule="evenodd" fill="#FEFEFE" stroke="#4900A3" stroke-width="0.216" stroke-miterlimit="22.9256" d="
		M21.336,15.606c0.669,0.284,0.323,0.282,0.989,0.005c0.056-0.312,0.075-0.68-0.029-0.968l-0.934-0.002
		C21.262,14.93,21.28,15.3,21.336,15.606L21.336,15.606z"/>
</g>
</svg>
